<?xml version="1.0" encoding="UTF-8" standalone="no"?>
<!-- Created with Inkscape (http://www.inkscape.org/) -->

<svg
   width="16.007294mm"
   height="27.437294mm"
   viewBox="0 0 16.007294 27.437294"
   version="1.1"
   id="svg6442"
   xmlns:inkscape="http://www.inkscape.org/namespaces/inkscape"
   xmlns:sodipodi="http://sodipodi.sourceforge.net/DTD/sodipodi-0.dtd"
   xmlns="http://www.w3.org/2000/svg"
   xmlns:svg="http://www.w3.org/2000/svg">
  <sodipodi:namedview
     id="namedview6444"
     pagecolor="#ffffff"
     bordercolor="#000000"
     borderopacity="0.25"
     inkscape:showpageshadow="2"
     inkscape:pageopacity="0.0"
     inkscape:pagecheckerboard="0"
     inkscape:deskcolor="#d1d1d1"
     inkscape:document-units="mm"
     showgrid="false" />
  <defs
     id="defs6439">
    <inkscape:path-effect
       effect="powerstroke"
       id="path-effect7454"
       is_visible="true"
       lpeversion="1"
       offset_points="0,4.9921382"
       not_jump="false"
       sort_points="true"
       interpolator_type="CubicBezierJohan"
       interpolator_beta="0.2"
       start_linecap_type="zerowidth"
       linejoin_type="extrp_arc"
       miter_limit="4"
       scale_width="1"
       end_linecap_type="zerowidth" />
    <inkscape:path-effect
       effect="powerstroke"
       id="path-effect7446"
       is_visible="true"
       lpeversion="1"
       offset_points="0,4.9921382"
       not_jump="false"
       sort_points="true"
       interpolator_type="CubicBezierJohan"
       interpolator_beta="0.2"
       start_linecap_type="zerowidth"
       linejoin_type="extrp_arc"
       miter_limit="4"
       scale_width="1"
       end_linecap_type="zerowidth" />
  </defs>
  <g
     inkscape:label="Capa 1"
     inkscape:groupmode="layer"
     id="layer1"
     transform="translate(-236.31809,-109.26351)">
    <g
       id="g283"
       transform="matrix(0.26458333,0,0,0.26458333,-236.50256,-3.3135066)">
			<g
   id="g275"
   style="stroke:#000000;stroke-opacity:1">
				<path
   class="st3"
   d="m 1697.2305,334.91475 c 0,-11.4 9.3,-20.7 20.7,-20.7 11.4,0 20.7,9.3 20.7,20.7 0,11.4 -9.3,20.7 -20.7,20.7 -11.4,0 -20.7,-9.3 -20.7,-20.7"
   id="path271"
   style="fill:#f6f1e9;stroke:#000000;stroke-opacity:1" />

				<path
   class="st4"
   d="m 1634.5,378 c -12.3,0 -22.3,-10 -22.3,-22.3 0,-12.3 10,-22.3 22.3,-22.3 12.3,0 22.3,10 22.3,22.3 0,12.3 -10,22.3 -22.3,22.3 z m 0,-41.4 c -10.5,0 -19,8.5 -19,19 0,10.5 8.5,19 19,19 10.5,0 19,-8.5 19,-19 0,-10.5 -8.5,-19 -19,-19 z"
   id="path273"
   style="fill:#55141d;stroke:#000000;stroke-opacity:1" />

			</g>

			<g
   id="g281"
   style="stroke:#000000;stroke-opacity:1">
				<path
   class="st3"
   d="m 1810.3604,357.76295 -21.1,66.4 c -0.4,1.1 -1.7,1.1 -2.1,0 l -21,-66.4 z"
   id="path277"
   style="fill:#f6f1e9;stroke:#000000;stroke-opacity:1" />

				<path
   class="st4"
   d="m 1634.4,430.8 c 0,0 0,0 0,0 -1.2,0 -2.2,-0.8 -2.6,-2 l -21,-66.4 c -0.2,-0.5 -0.1,-1.1 0.2,-1.5 0.3,-0.4 0.8,-0.7 1.3,-0.7 h 44.2 c 0.5,0 1,0.3 1.3,0.7 0.3,0.4 0.4,1 0.2,1.5 l -21.1,66.4 c -0.2,1.3 -1.2,2 -2.5,2 z m -19.7,-67.2 19.7,62.5 19.9,-62.5 z"
   id="path279"
   style="fill:#55141d;stroke:#000000;stroke-opacity:1" />

			</g>

		<path
   style="fill:none;fill-opacity:1;stroke:#000000;stroke-width:1.77638;stroke-opacity:1;paint-order:fill markers stroke"
   d="m 1561.6473,458.98208 23.7041,68.95569 23.704,-68.95569 v 0 l -5.1637,-1.64431 c -7.541,-29.62544 -27.0898,-32.56402 -42.2444,1.64431 z"
   id="path7442"
   sodipodi:nodetypes="cccccc" />
<path
   style="fill:none;fill-rule:nonzero;stroke:#000000;stroke-width:1.77638;stroke-opacity:1;paint-order:fill markers stroke"
   d="m 1534.2062,433.29608 c -4.9829,-16.99773 -11.7665,-40.13754 -19.7,-67.2 l -0.6546,-2.2331 -2.1312,-0.93448 c -1.22,-0.53494 -2.5738,-1.12854 -4.0041,-1.75569 l -1.7825,9.55914 c 1.2332,-0.0549 2.5257,-0.11254 3.8376,-0.171 l 2.3216,-0.10345 1.4155,-1.84306 c 5.1048,-6.64702 10.2682,-13.37025 15.3965,-20.04783 5.1796,6.37586 10.2719,12.6444 15.1763,18.68152 l 0.9398,1.15684 1.4201,0.45224 c 0.099,0.0316 0.1984,0.0632 0.2972,0.0946 -8.8329,25.69504 -16.3986,47.70388 -22.0437,64.12575 z m -0.07,3.02724 c 5.9957,-17.44182 14.158,-41.18618 23.704,-68.95569 l 1.6603,-4.82994 -4.8665,-1.54971 c -1.1635,-0.37049 -2.4213,-0.77102 -3.7436,-1.19209 -5.8727,-7.22916 -12.0033,-14.77577 -18.2212,-22.42975 l -3.9847,-4.90507 -3.8493,5.01209 c -5.9134,7.69983 -11.9053,15.50193 -17.8303,23.21686 -0.5132,0.0229 -1.0194,0.0454 -1.516,0.0675 l -1.7825,9.55914 c 0.6414,0.28124 1.2674,0.55573 1.8729,0.82121 7.6522,26.10276 14.2,48.43858 19.0454,64.9669 z"
   id="path7444"
   inkscape:path-effect="#path-effect7446"
   inkscape:original-d="m 1529.4157,434.70045 -19.7,-67.2 -4.0041,-1.75569 v 0 l 3.8376,-0.171 19.2458,-25.05992 19.161,23.58659 5.1637,1.64433 z" />
<path
   style="fill:none;fill-opacity:1;fill-rule:nonzero;stroke:#55141d;stroke-width:1.77638;stroke-linejoin:round;stroke-opacity:1;paint-order:fill markers stroke"
   d="m 1734.199,534.46399 -23.7041,-68.95569 3.3636,10e-4 c 0,0 -0.038,-25.48093 20.4405,-25.24569 19.5312,0.22436 19.8957,25.33188 19.8957,25.33188 l 3.7083,-0.0876 z"
   id="path7452"
   inkscape:path-effect="#path-effect7454"
   inkscape:original-d="m 1734.199,534.46399 -23.7041,-68.95569 3.3636,10e-4 c 0,0 -0.038,-25.48093 20.4405,-25.24569 19.5312,0.22436 19.8957,25.33188 19.8957,25.33188 l 3.7083,-0.0876 z"
   sodipodi:nodetypes="cccsccc" />
<path
   style="fill:none;fill-opacity:1;stroke:#55141d;stroke-width:1.77638;stroke-opacity:1;paint-order:fill markers stroke"
   d="m 1713.7366,465.57246 h 40.8533"
   id="path7460"
   inkscape:export-filename="unabocha.png"
   inkscape:export-xdpi="96"
   inkscape:export-ydpi="96" />
<g
   id="g311"
   transform="translate(-5.0613071,101.88795)">
			<g
   id="g297">
				
				<path
   class="st4"
   d="m 1832.1562,359.612 c -11.0557,0.99061 -2.9856,-1.79181 -2.6479,-12.88667 0.3278,-10.77216 -9.4225,-21.41413 0.2101,-22.88155 C 1840.6918,322.1721 1852.6,332.7 1852.6,343.8 c 0,11.1 -6.2959,14.54432 -20.4438,15.812 z m -0.9751,-32.22444 c -9.3,0 2.8009,7.54259 0.021,16.31244 -3.3171,10.4632 -13.7421,16.89618 3.3922,13.87466 9.0602,-1.59771 14.606,-4.67466 14.606,-13.87466 0,-9.2 -8.7189,-16.31244 -18.0189,-16.31244 z"
   id="path295"
   style="fill:#55141d"
   sodipodi:nodetypes="sssssssssss" />

			</g>

			<g
   id="g303">
				
				<path
   class="st4"
   d="m 1812.3,359.36822 c -11.1,0 -20.2,-4.46822 -20.2,-15.56822 0,-11.1 9.1,-20.2 20.2,-20.2 11.1,0 20.2,9.1 20.2,20.2 0,11.1 -9,15.56822 -20.2,15.56822 z m 0,-32.46822 c -9.3,0 -16.8,7.6 -16.8,16.8 0,9.2 8.0876,14.11844 17.2876,14.11844 9.3,0 16.3124,-4.91844 16.3124,-14.11844 0,-9.2 -7.5,-16.8 -16.8,-16.8 z"
   id="path301"
   style="fill:#55141d"
   sodipodi:nodetypes="ssssssssss" />

			</g>

			<g
   id="g309">
				
				<path
   class="st4"
   d="m 1822.6,427.3 c 0,0 0,0 0,0 -1.2,0 -2.2,-0.8 -2.6,-2 l -21,-66.4 c -0.2,-0.5 -0.1,-1.1 0.2,-1.5 0.3,-0.4 0.8,-0.7 1.3,-0.7 h 44.2 c 0.5,0 1,0.3 1.3,0.7 0.3,0.4 0.4,1 0.2,1.5 l -21.1,66.4 c -0.3,1.2 -1.3,2 -2.5,2 z m -19.8,-67.3 19.7,62.5 19.9,-62.5 z"
   id="path307"
   style="fill:#55141d" />

			</g>

		</g>
<path
   style="fill:none;fill-opacity:1;stroke:#55141d;stroke-width:1.77638;stroke-linejoin:round;stroke-opacity:1;paint-order:fill markers stroke"
   d="m 1897.2541,529.18794 -23.1316,-70.18596 c 0,0 -12.2601,-25.64544 11.1252,-27.53247 27.4132,-2.21207 13.5533,28.71843 13.5533,28.71843 0,0 -3.9978,-30.54349 6.7904,-31.39999 11.4454,-0.90867 15.3652,31.51372 15.3652,31.51372 z"
   id="path8664"
   sodipodi:nodetypes="ccscscc" />
</g>
  </g>
</svg>
